<?xml version="1.0" standalone="no"?>
<!DOCTYPE svg PUBLIC "-//W3C//DTD SVG 20010904//EN"
 "http://www.w3.org/TR/2001/REC-SVG-20010904/DTD/svg10.dtd">
<svg version="1.0" xmlns="http://www.w3.org/2000/svg"
 width="800.000000pt" height="800.000000pt" viewBox="0 0 800.000000 800.000000"
 preserveAspectRatio="xMidYMid meet">
<metadata>
Created by potrace 1.14, written by Peter Selinger 2001-2017
</metadata>
<g transform="translate(0.000000,800.000000) scale(0.100000,-0.100000)"
fill="#000000" stroke="none">
<path d="M3958 7395 c-2 -2 -30 -6 -63 -9 -33 -4 -76 -8 -95 -11 -43 -5 -118
-13 -190 -20 -30 -3 -66 -7 -80 -10 -14 -2 -50 -7 -80 -10 -78 -8 -131 -15
-160 -20 -14 -2 -45 -7 -70 -10 -44 -6 -284 -50 -327 -60 -13 -3 -33 -7 -44
-10 -88 -19 -205 -53 -329 -96 -80 -27 -219 -72 -310 -99 -91 -26 -187 -56
-215 -65 -27 -10 -54 -19 -60 -20 -5 -1 -19 -5 -30 -10 -289 -111 -400 -165
-550 -265 -55 -37 -174 -116 -265 -175 -246 -160 -395 -293 -488 -436 -21 -32
-42 -56 -46 -52 -4 4 -4 0 0 -10 3 -9 2 -17 -3 -17 -5 0 -10 -6 -11 -12 0 -7
-3 -26 -6 -43 -3 -16 -9 -46 -13 -65 -3 -19 -7 -39 -8 -45 -26 -112 -28 -286
-5 -375 10 -39 24 -77 30 -85 8 -10 9 -15 2 -15 -6 0 -14 10 -17 21 -4 13 -10
17 -14 11 -4 -6 -32 13 -71 47 -61 55 -67 58 -110 54 -80 -6 -111 -10 -117
-16 -3 -3 7 -28 23 -54 79 -132 99 -171 93 -178 -3 -2 -23 -7 -44 -9 -22 -3
-57 -8 -77 -11 -21 -3 -55 -7 -75 -10 -20 -3 -39 -7 -41 -9 -5 -6 20 -89 30
-100 4 -6 8 -18 8 -27 0 -19 15 -26 74 -34 21 -2 40 -6 42 -8 5 -4 -142 -147
-204 -199 l-43 -36 58 -36 c31 -20 67 -36 78 -37 29 0 109 -11 113 -14 2 -2
-13 -34 -34 -72 -20 -37 -45 -84 -54 -103 -10 -19 -46 -63 -79 -97 -34 -35
-61 -70 -61 -78 0 -25 38 -92 55 -99 9 -3 63 -6 120 -6 l104 0 -4 -67 c-3 -38
-7 -113 -10 -168 -5 -106 -13 -200 -20 -225 -3 -14 -8 -49 -20 -150 -3 -25
-10 -78 -15 -118 -9 -66 -8 -81 16 -155 14 -45 30 -93 35 -107 6 -13 12 -72
15 -130 l4 -105 -107 -42 c-60 -23 -107 -46 -106 -50 0 -4 4 -51 7 -103 7
-103 14 -188 21 -262 2 -32 13 -60 32 -84 27 -36 27 -37 4 -29 l-23 7 6 -108
c9 -150 14 -202 31 -334 17 -137 90 -315 166 -410 24 -31 55 -78 69 -104 36
-71 122 -160 209 -216 42 -27 81 -53 86 -57 6 -4 15 -9 20 -10 20 -6 404 -162
505 -206 129 -56 267 -99 424 -132 113 -24 330 -60 426 -70 25 -3 56 -8 70
-10 14 -3 43 -8 65 -10 71 -9 248 -42 370 -70 67 -15 90 -18 200 -31 33 -4 67
-8 75 -10 8 -1 25 -3 38 -3 16 -1 21 -5 16 -13 -6 -10 -5 -10 8 -1 8 7 17 11
19 8 3 -2 26 -5 52 -6 26 -2 47 -5 47 -8 0 -3 44 -7 97 -9 54 -2 103 -8 110
-14 8 -6 13 -6 13 -1 0 5 7 10 15 10 8 0 12 -4 9 -8 -2 -4 12 -5 32 -2 25 4
39 2 45 -8 5 -8 9 -9 9 -3 0 12 29 12 48 0 6 -4 12 -4 12 1 0 12 94 2 102 -11
6 -8 8 -7 8 2 0 6 5 12 11 12 5 0 8 -4 5 -8 -2 -4 4 -8 14 -8 10 0 16 4 14 8
-3 4 10 5 28 2 18 -3 39 -5 46 -5 31 2 40 2 79 0 29 -1 43 -6 46 -18 4 -13 5
-12 6 3 1 16 3 17 18 5 9 -8 14 -9 10 -3 -4 7 8 10 34 10 30 -1 38 -4 34 -16
-3 -9 1 -7 10 4 15 20 15 20 16 0 0 -18 1 -18 9 1 6 13 9 15 9 5 1 -9 4 -11 9
-5 4 6 26 11 48 11 33 0 41 -3 37 -16 -4 -13 -3 -13 9 0 13 15 63 16 54 1 -3
-4 1 -8 8 -8 8 0 12 7 8 15 -4 11 -2 13 9 7 8 -5 27 -8 44 -7 22 2 26 0 16 -7
-10 -7 -8 -9 12 -8 21 2 23 5 14 17 -8 10 -3 9 17 -4 16 -10 25 -13 22 -7 -10
15 7 14 23 -1 11 -10 13 -10 7 0 -5 8 2 12 24 12 22 0 29 -4 24 -12 -6 -10 -5
-10 7 -1 12 10 18 10 29 0 10 -9 11 -9 6 1 -5 7 -1 12 9 12 10 0 14 -5 9 -12
-6 -10 -4 -10 7 -1 18 17 63 17 53 1 -5 -9 -2 -8 9 1 10 7 45 15 78 16 38 2
56 -1 48 -6 -10 -6 -6 -8 11 -5 14 3 25 5 25 6 0 1 8 3 18 5 9 2 15 -1 12 -6
-3 -5 12 -8 33 -6 30 1 38 6 34 17 -4 13 -3 13 11 0 11 -10 31 -14 63 -11 30
2 42 6 33 11 -8 6 -1 8 19 6 17 -1 35 -5 38 -9 4 -4 14 -7 23 -6 12 0 11 3 -4
9 -19 8 -19 9 3 9 12 1 22 -3 22 -8 0 -10 32 -10 40 0 3 4 16 9 30 13 l25 7
-25 -15 c-24 -14 -23 -14 20 -9 25 3 50 12 57 20 6 8 14 10 17 4 3 -5 0 -12
-6 -14 -7 -3 16 -3 52 -1 35 3 68 11 72 17 6 9 8 9 8 0 0 -7 13 -11 34 -10 19
1 32 5 29 10 -2 4 13 5 34 2 28 -4 34 -3 23 4 -9 7 -10 11 -3 11 6 0 15 -4 18
-10 3 -5 11 -10 16 -10 6 0 7 5 4 10 -8 13 17 9 26 -4 4 -5 13 -5 20 0 8 5 24
7 37 5 13 -1 22 3 22 11 0 8 3 9 8 3 9 -13 44 -16 36 -3 -3 5 5 6 19 2 32 -7
70 4 61 18 -4 7 -2 8 5 4 6 -4 8 -12 5 -18 -9 -14 39 1 48 16 5 7 8 8 8 0 0
-6 12 -10 28 -9 22 1 124 16 142 20 3 1 25 5 50 9 24 5 51 16 58 25 7 9 10 10
7 3 -10 -19 36 -12 53 8 8 8 11 9 7 3 -4 -8 0 -13 9 -13 20 0 30 17 14 23 -10
4 -10 6 0 6 7 1 15 -6 18 -14 5 -11 11 -12 25 -4 10 5 19 8 19 5 0 -2 16 0 36
6 20 5 44 11 53 13 9 1 36 6 61 11 25 4 48 9 53 10 4 1 14 2 23 3 9 1 12 6 8
14 -5 9 -4 9 5 1 9 -9 30 -7 81 6 38 10 71 15 74 12 4 -3 6 3 7 14 0 10 3 13
6 7 2 -7 9 -13 14 -13 6 0 8 4 5 9 -3 4 8 7 25 5 16 -2 28 0 24 5 -3 5 5 7 17
3 16 -4 19 -2 13 8 -5 8 -4 11 2 7 14 -9 74 3 68 13 -2 4 7 6 20 4 14 -1 25 2
25 7 0 6 4 8 9 5 5 -3 11 1 15 9 3 8 11 15 18 15 9 0 9 -3 -2 -11 -11 -8 -9
-9 10 -3 14 4 27 9 30 13 3 3 10 6 15 6 24 1 85 27 80 36 -4 5 2 6 11 2 13 -5
15 -3 9 7 -5 9 -4 11 4 6 11 -7 71 13 71 24 0 3 8 6 18 7 26 2 113 58 105 67
-4 4 0 4 9 1 9 -4 19 -2 23 4 3 6 17 11 31 11 14 0 23 4 20 9 -3 4 6 6 19 3
15 -2 25 0 25 7 0 7 -4 9 -10 6 -6 -3 -7 1 -4 10 6 14 8 14 20 -2 8 -10 13
-13 14 -6 0 7 7 10 15 7 8 -4 17 1 21 9 3 9 12 13 20 10 26 -10 174 108 174
138 0 7 3 10 6 6 9 -8 23 8 65 73 36 56 82 174 71 184 -3 3 0 6 5 6 6 0 10 8
9 18 -2 9 1 20 5 23 5 3 10 28 11 56 2 28 7 48 12 45 5 -3 7 5 4 16 -4 12 -3
22 0 22 4 0 7 13 7 30 1 16 -4 30 -9 30 -5 0 -2 6 9 13 13 10 15 16 6 21 -6 4
-8 13 -4 19 16 27 18 231 2 341 -11 74 -11 80 8 95 21 16 36 37 162 223 54 80
70 113 66 130 -3 13 -7 46 -10 73 -19 212 -12 189 -81 278 -65 82 -76 107 -48
107 8 0 13 4 10 8 -7 12 12 38 21 29 4 -5 2 -11 -4 -15 -9 -5 -5 -12 10 -21
21 -13 21 -13 7 4 -14 17 -13 18 3 12 10 -4 16 -3 12 2 -3 5 -2 11 2 14 5 2 3
2 -4 1 -7 -2 -15 1 -18 5 -7 12 24 23 37 14 7 -4 8 -1 4 6 -5 7 0 18 10 26 11
8 15 15 10 15 -5 0 -1 9 9 20 18 20 18 21 -1 15 -19 -7 -19 -6 0 9 19 15 11
22 -18 17 -5 -1 -6 5 -2 14 3 9 2 13 -4 10 -6 -3 -10 -2 -10 3 0 6 7 13 16 16
22 9 24 8 18 -8 -3 -8 -1 -16 4 -20 5 -3 8 5 7 16 -1 12 -7 24 -14 26 -9 3 -9
7 0 18 9 11 9 18 1 26 -16 16 -15 31 1 22 9 -6 9 -4 -1 8 -10 13 -10 17 0 20
8 3 7 6 -4 11 -13 4 -16 1 -13 -14 2 -10 -1 -19 -8 -19 -8 0 -8 -3 1 -12 15
-15 16 -32 2 -23 -5 3 -10 1 -10 -4 0 -6 4 -11 8 -11 5 0 9 -7 9 -15 0 -21
-14 -19 -20 3 -3 9 -4 -3 -2 -26 3 -36 2 -42 -9 -33 -11 9 -12 21 -4 54 5 23
12 53 14 67 2 14 6 39 9 57 3 17 37 79 75 137 39 58 70 109 70 114 0 9 -38
137 -70 232 -10 30 -21 69 -24 86 -7 31 -6 31 38 36 73 9 76 14 71 138 -5 132
-11 160 -35 160 -42 0 -99 51 -95 85 4 33 22 88 50 156 l33 76 -32 74 c-34 79
-34 82 -5 178 11 35 18 65 17 67 -5 4 -131 35 -158 38 -38 4 -40 5 -40 17 0 5
5 7 10 4 6 -3 10 -1 10 4 0 6 -5 11 -11 11 -6 0 -8 7 -5 16 3 9 3 21 0 26 -12
19 -12 88 0 88 6 0 3 5 -7 11 -15 9 -16 13 -5 27 11 13 11 14 -1 7 -11 -6 -13
-4 -8 8 3 10 3 17 -1 17 -4 0 -9 11 -10 24 -5 67 -100 324 -229 622 -39 87
-82 189 -97 227 -16 37 -32 67 -37 67 -5 0 -9 9 -9 20 0 12 -7 20 -16 20 -10
0 -14 5 -10 16 3 8 2 13 -3 10 -5 -3 -19 7 -32 23 -34 40 -154 132 -309 238
-74 51 -161 114 -192 140 -141 120 -387 239 -643 311 -53 16 -239 60 -275 67
-3 0 -57 13 -120 29 -104 25 -219 52 -259 61 -9 2 -47 11 -86 20 -38 9 -110
24 -160 34 -49 10 -124 26 -165 35 -41 8 -86 17 -100 20 -14 2 -72 14 -130 25
-58 11 -116 22 -130 25 -14 2 -52 9 -85 15 -100 19 -106 20 -440 77 -16 3 -43
7 -60 10 -35 7 -153 13 -157 9z m-2310 -4062 c-10 -2 -28 -2 -40 0 -13 2 -5 4
17 4 22 1 32 -1 23 -4z m132 -7 c183 -13 224 -16 229 -22 5 -5 -185 4 -259 11
-14 2 -37 3 -52 4 -16 1 -28 6 -28 12 0 5 3 8 8 6 4 -3 50 -7 102 -11z m655
-23 c-2 -10 -5 -38 -6 -63 -2 -44 -2 -45 -6 -7 -2 20 -7 37 -11 38 -19 1 -98
7 -192 14 -58 4 -107 9 -110 12 -5 6 192 -5 245 -13 22 -3 37 1 50 15 25 25
34 26 30 4z m-385 3 c0 -11 -19 -15 -25 -6 -3 5 1 10 9 10 9 0 16 -2 16 -4z
m44 -8 c-3 -4 -9 -8 -15 -8 -5 0 -9 4 -9 8 0 5 7 9 15 9 8 0 12 -4 9 -9z
m1824 -5 c-10 -2 -26 -2 -35 0 -10 3 -2 5 17 5 19 0 27 -2 18 -5z m3898 -58
c-3 -8 0 -15 5 -17 6 -2 0 -17 -13 -33 -12 -16 -17 -26 -10 -21 6 4 12 2 12
-3 0 -6 -2 -11 -4 -11 -2 0 -12 -3 -21 -7 -15 -5 -16 -3 -6 16 7 12 9 27 5 33
-4 6 -3 8 3 5 6 -4 14 0 17 9 5 12 2 15 -11 10 -15 -5 -15 -4 1 9 11 8 14 15
7 15 -7 0 -9 5 -6 10 9 14 27 1 21 -15z m36 1 c-4 -6 -7 -20 -7 -31 1 -19 -12
-35 -28 -35 -5 0 -2 9 6 21 8 11 13 28 10 38 -3 11 1 18 11 18 9 0 13 -5 8
-11z m-7115 -132 c-3 -3 -12 -4 -19 -1 -8 3 -5 6 6 6 11 1 17 -2 13 -5z m120
-20 c-3 -3 -12 -4 -19 -1 -8 3 -5 6 6 6 11 1 17 -2 13 -5z m6513 -1874 c0 -5
-5 -10 -11 -10 -5 0 -7 5 -4 10 3 6 8 10 11 10 2 0 4 -4 4 -10z m-40 -45 c0
-7 -30 -13 -34 -7 -3 4 4 9 15 9 10 1 19 0 19 -2z m-300 -119 c0 -2 -7 -7 -16
-10 -8 -3 -12 -2 -9 4 6 10 25 14 25 6z m-2370 -426 c0 -5 -5 -10 -11 -10 -5
0 -7 5 -4 10 3 6 8 10 11 10 2 0 4 -4 4 -10z"/>
<path d="M7740 5143 c7 -3 7 -11 0 -24 -7 -13 -7 -19 0 -19 5 0 10 7 10 15 0
8 0 18 1 22 0 4 -4 8 -10 10 -7 1 -7 -1 -1 -4z"/>
<path d="M7746 5074 c-5 -14 -4 -15 9 -4 17 14 19 20 6 20 -5 0 -12 -7 -15
-16z"/>
<path d="M7760 5040 c0 -5 5 -10 11 -10 5 0 7 5 4 10 -3 6 -8 10 -11 10 -2 0
-4 -4 -4 -10z"/>
<path d="M7760 3080 c-8 -5 -11 -13 -6 -17 5 -4 11 -2 13 5 4 10 8 10 21 0 15
-12 16 -11 3 5 -7 9 -14 17 -15 17 0 0 -8 -4 -16 -10z"/>
<path d="M3598 603 c7 -3 16 -2 19 1 4 3 -2 6 -13 5 -11 0 -14 -3 -6 -6z"/>
<path d="M3976 598 c3 -5 10 -6 15 -3 13 9 11 12 -6 12 -8 0 -12 -4 -9 -9z"/>
<path d="M4496 599 c4 -8 30 -6 38 2 3 3 -5 5 -19 5 -13 0 -22 -3 -19 -7z"/>
</g>
</svg>
